<svg viewBox="478.2763 666.6582 408.4475 148.7626" width="5000" height="1821.0736998023" xmlns="http://www.w3.org/2000/svg" xmlns:xlink="http://www.w3.org/1999/xlink" preserveAspectRatio="none"><defs></defs><style>.a6izo4zJpcolor {fill:#514ED2;fill-opacity:1;}.a6izo4zJpstrokeColor-str {stroke:#514ED2;stroke-opacity:1;}.aD6z1nYkhcolor {fill:#000000;fill-opacity:1;}.aD6z1nYkhstrokeColor-str {stroke:#000000;stroke-opacity:1;}.aLgOaV3zRcolors-0 {fill:#514ED2;fill-opacity:0.98;}.aR9TavoXYfillColor {fill:#B4B8EF;fill-opacity:0.98;}.asr1BtIxlfillColor {fill:#B4B8EF;fill-opacity:0.98;}.shapeStroke-str {stroke:#7EDBB0;stroke-opacity:1;}</style><g opacity="1" transform="rotate(0 492.5 803.8981)">
<svg width="380" height="11.5227" x="492.5" y="803.8981" version="1.1" preserveAspectRatio="none" viewBox="4.16 -30.12 1024.96 31.080000000000002">
  <g transform="matrix(1 0 0 1 0 0)" class="a6izo4zJpcolor"><path id="id-6izo4zJp31" d="M27.08-28.92L27.08 0L23.20 0L23.20-12.68L8.04-12.68L8.04 0L4.16 0L4.16-28.92L8.04-28.92L8.04-16.40L23.20-16.40L23.20-28.92L27.08-28.92Z M41.60-14.44Q41.60-18.40 43.60-21.80Q45.60-25.20 48.98-27.22Q52.36-29.24 56.36-29.24L56.36-29.24Q60.32-29.24 63.72-27.22Q67.12-25.20 69.14-21.80Q71.16-18.40 71.16-14.44L71.16-14.44Q71.16-10.44 69.16-7.04Q67.16-3.64 63.74-1.66Q60.32 0.32 56.36 0.32L56.36 0.32Q52.36 0.32 48.96-1.64Q45.56-3.60 43.58-6.98Q41.60-10.36 41.60-14.44L41.60-14.44ZM45.60-14.40Q45.60-11.44 47.04-8.92Q48.48-6.40 50.98-4.92Q53.48-3.44 56.44-3.44L56.44-3.44Q59.40-3.44 61.86-4.90Q64.32-6.36 65.74-8.90Q67.16-11.44 67.16-14.44L67.16-14.44Q67.16-17.44 65.72-20Q64.28-22.56 61.80-24.04Q59.32-25.52 56.36-25.52L56.36-25.52Q53.40-25.52 50.92-24.02Q48.44-22.52 47.02-19.96Q45.60-17.40 45.60-14.40L45.60-14.40Z M82.32-28.92L101.52-28.92L101.52-25.20L93.76-25.20L93.76 0L89.88 0L89.88-25.20L82.32-25.20L82.32-28.92Z M115.72-28.92L134.52-28.92L134.52-25.20L119.60-25.20L119.60-16.40L132.92-16.40L132.92-12.68L119.60-12.68L119.60-3.76L135.08-3.76L135.08 0L115.72 0L115.72-28.92Z M149.84-28.92L153.72-28.92L153.72-3.76L168.44-3.76L168.44 0L149.84 0L149.84-28.92Z M180.40-14.44Q180.40-18.40 182.40-21.80Q184.40-25.20 187.78-27.22Q191.16-29.24 195.16-29.24L195.16-29.24Q199.12-29.24 202.52-27.22Q205.92-25.20 207.94-21.80Q209.96-18.40 209.96-14.44L209.96-14.44Q209.96-10.44 207.96-7.04Q205.96-3.64 202.54-1.66Q199.12 0.32 195.16 0.32L195.16 0.32Q191.16 0.32 187.76-1.64Q184.36-3.60 182.38-6.98Q180.40-10.36 180.40-14.44L180.40-14.44ZM184.40-14.40Q184.40-11.44 185.84-8.92Q187.28-6.40 189.78-4.92Q192.28-3.44 195.24-3.44L195.24-3.44Q198.20-3.44 200.66-4.90Q203.12-6.36 204.54-8.90Q205.96-11.44 205.96-14.44L205.96-14.44Q205.96-17.44 204.52-20Q203.08-22.56 200.60-24.04Q198.12-25.52 195.16-25.52L195.16-25.52Q192.20-25.52 189.72-24.02Q187.24-22.52 185.82-19.96Q184.40-17.40 184.40-14.40L184.40-14.40Z M232.24-28.92Q236.96-28.92 239.62-26.56Q242.28-24.20 242.28-19.96L242.28-19.96Q242.28-17.52 241.30-15.40Q240.32-13.28 238.14-11.96Q235.96-10.64 232.64-10.64L232.64-10.64L228.36-10.64L228.36 0L224.48 0L224.48-28.92L232.24-28.92ZM232.64-14.40Q234.72-14.40 236.02-15.28Q237.32-16.16 237.88-17.42Q238.44-18.68 238.44-19.88L238.44-19.88Q238.44-21.96 237.08-23.58Q235.72-25.20 232.84-25.20L232.84-25.20L228.36-25.20L228.36-14.40L232.64-14.40Z M254.16-28.92L273.36-28.92L273.36-25.20L265.60-25.20L265.60 0L261.72 0L261.72-25.20L254.16-25.20L254.16-28.92Z M287.56-28.92L291.44-28.92L291.44 0L287.56 0L287.56-28.92Z M336.48-29.84L336.52-29.84L336.52 0L332.68 0L332.68-18.72L322.04-3.64L321.96-3.64L311.52-18.20L311.52 0L307.76 0L307.76-29.84L307.80-29.84L322.04-9.68L336.48-29.84Z M352.84-28.92L356.72-28.92L356.72 0L352.84 0L352.84-28.92Z M373.04-28.92L391.84-28.92L391.84-25.20L376.92-25.20L376.92-16.40L390.24-16.40L390.24-12.68L376.92-12.68L376.92-3.76L392.40-3.76L392.40 0L373.04 0L373.04-28.92Z M427.60 0L423.08 0L416.28-10.68Q415.96-10.64 415.32-10.64L415.32-10.64L411.04-10.64L411.04 0L407.16 0L407.16-28.92L414.88-28.92Q417.84-28.92 420.16-27.88Q422.48-26.84 423.80-24.82Q425.12-22.80 425.12-19.96L425.12-19.96Q425.12-17.28 423.94-15.04Q422.76-12.80 420.32-11.64L420.32-11.64L427.60 0ZM415.24-14.40Q418.36-14.40 419.74-16.04Q421.12-17.68 421.12-19.80L421.12-19.80Q421.12-21.08 420.54-22.32Q419.96-23.56 418.70-24.38Q417.44-25.20 415.52-25.20L415.52-25.20L411.04-25.20L411.04-14.40L415.24-14.40Z M445.08-10.24Q445.08-8.32 446.00-6.78Q446.92-5.24 448.50-4.34Q450.08-3.44 452.00-3.44L452.00-3.44Q454.00-3.44 455.62-4.32Q457.24-5.20 458.16-6.76Q459.08-8.32 459.08-10.24L459.08-10.24L459.08-28.92L462.88-28.92L462.88-10.12Q462.88-7.04 461.44-4.66Q460.00-2.28 457.52-0.98Q455.04 0.32 452.00 0.32L452.00 0.32Q449.00 0.32 446.52-0.98Q444.04-2.28 442.62-4.66Q441.20-7.04 441.20-10.12L441.20-10.12L441.20-28.92L445.08-28.92L445.08-10.24Z M500.16-28.92L504.04-28.92L504.04 0.96L503.92 0.96L482.68-20.60L482.76 0L478.84 0L478.84-29.80L479.04-29.80L500.24-8L500.16-28.92Z M543.04-2.48Q541.72-1.44 538.90-0.56Q536.08 0.32 533.68 0.32L533.68 0.32Q529.16 0.32 525.72-1.54Q522.28-3.40 520.42-6.64Q518.56-9.88 518.56-13.92L518.56-13.92Q518.56-18.64 520.56-22.10Q522.56-25.56 525.96-27.40Q529.36-29.24 533.40-29.24L533.40-29.24Q535.84-29.24 538.00-28.66Q540.16-28.08 541.88-27.12L541.88-27.12L540.60-23.56Q539.32-24.28 537.38-24.82Q535.44-25.36 533.88-25.36L533.88-25.36Q530.52-25.36 527.94-24Q525.36-22.64 523.96-20.12Q522.56-17.60 522.56-14.24L522.56-14.24Q522.56-11.12 523.96-8.68Q525.36-6.24 527.92-4.90Q530.48-3.56 533.76-3.56L533.76-3.56Q535.28-3.56 536.72-3.86Q538.16-4.16 539.12-4.72L539.12-4.72L539.12-10.44L533.36-10.44L533.36-14.16L543.04-14.16L543.04-2.48Z M597.24 0L594.24-7.60L583.12-7.60L580.04 0L576.20 0L588.84-30.12L589.08-30.12L601.72 0L597.24 0ZM584.52-10.96L592.92-10.96L588.80-21.52L584.52-10.96Z M618.00-10.24Q618.00-8.32 618.92-6.78Q619.84-5.24 621.42-4.34Q623.00-3.44 624.92-3.44L624.92-3.44Q626.92-3.44 628.54-4.32Q630.16-5.20 631.08-6.76Q632.00-8.32 632.00-10.24L632.00-10.24L632.00-28.92L635.80-28.92L635.80-10.12Q635.80-7.04 634.36-4.66Q632.92-2.28 630.44-0.98Q627.96 0.32 624.92 0.32L624.92 0.32Q621.92 0.32 619.44-0.98Q616.96-2.28 615.54-4.66Q614.12-7.04 614.12-10.12L614.12-10.12L614.12-28.92L618.00-28.92L618.00-10.24Z M666.72-23.76Q665.16-24.60 663.40-25.12Q661.64-25.64 660.08-25.64L660.08-25.64Q657.72-25.64 656.34-24.58Q654.96-23.52 654.96-21.68L654.96-21.68Q654.96-19.88 656.58-18.74Q658.20-17.60 661.20-16.48L661.20-16.48Q663.44-15.68 664.98-14.74Q666.52-13.80 667.54-12.14Q668.56-10.48 668.56-7.92L668.56-7.92Q668.56-5.60 667.40-3.72Q666.24-1.84 664.10-0.76Q661.96 0.32 659.08 0.32L659.08 0.32Q656.40 0.32 653.92-0.54Q651.44-1.40 649.56-2.72L649.56-2.72L651.28-5.80Q652.76-4.68 654.84-3.90Q656.92-3.12 658.72-3.12L658.72-3.12Q661.04-3.12 662.78-4.32Q664.52-5.52 664.52-7.88L664.52-7.88Q664.52-9.88 663.06-11.06Q661.60-12.24 658.96-13.28L658.96-13.28Q656.52-14.20 654.90-15.08Q653.28-15.96 652.12-17.50Q650.96-19.04 650.96-21.36L650.96-21.36Q650.96-24.76 653.34-26.86Q655.72-28.96 659.52-29.08L659.52-29.08Q664.20-29.08 668.20-26.76L668.20-26.76L666.72-23.76Z M703.68-28.92L722.48-28.92L722.48-25.20L707.56-25.20L707.56-16.40L720.88-16.40L720.88-12.68L707.56-12.68L707.56-3.76L723.04-3.76L723.04 0L703.68 0L703.68-28.92Z M737.80-28.92L741.68-28.92L741.68 0L737.80 0L737.80-28.92Z M779.32-28.92L783.20-28.92L783.20 0.96L783.08 0.96L761.84-20.60L761.92 0L758.00 0L758.00-29.80L758.20-29.80L779.40-8L779.32-28.92Z M799.52-28.92L818.32-28.92L818.32-25.20L803.40-25.20L803.40-16.40L816.72-16.40L816.72-12.68L803.40-12.68L803.40-3.76L818.88-3.76L818.88 0L799.52 0L799.52-28.92Z M854.08 0L849.56 0L842.76-10.68Q842.44-10.64 841.80-10.64L841.80-10.64L837.52-10.64L837.52 0L833.64 0L833.64-28.92L841.36-28.92Q844.32-28.92 846.64-27.88Q848.96-26.84 850.28-24.82Q851.60-22.80 851.60-19.96L851.60-19.96Q851.60-17.28 850.42-15.04Q849.24-12.80 846.80-11.64L846.80-11.64L854.08 0ZM841.72-14.40Q844.84-14.40 846.22-16.04Q847.60-17.68 847.60-19.80L847.60-19.80Q847.60-21.08 847.02-22.32Q846.44-23.56 845.18-24.38Q843.92-25.20 842.00-25.20L842.00-25.20L837.52-25.20L837.52-14.40L841.72-14.40Z M911.60-28.92L911.60 0L907.72 0L907.72-12.68L892.56-12.68L892.56 0L888.68 0L888.68-28.92L892.56-28.92L892.56-16.40L907.72-16.40L907.72-28.92L911.60-28.92Z M946.08 0L943.08-7.60L931.96-7.60L928.88 0L925.04 0L937.68-30.12L937.92-30.12L950.56 0L946.08 0ZM933.36-10.96L941.76-10.96L937.64-21.52L933.36-10.96Z M985.28-28.92L989.16-28.92L989.16 0.96L989.04 0.96L967.80-20.60L967.88 0L963.96 0L963.96-29.80L964.16-29.80L985.36-8L985.28-28.92Z M1005.48 0L1005.48-28.92L1013.40-28.92Q1018.80-28.92 1022.34-26.78Q1025.88-24.64 1027.50-21.26Q1029.12-17.88 1029.12-14.12L1029.12-14.12Q1029.12-9.92 1027.16-6.70Q1025.20-3.48 1021.92-1.74Q1018.64 0 1014.80 0L1014.80 0L1005.48 0ZM1009.36-3.76L1014.04-3.76Q1017.24-3.76 1019.76-5.02Q1022.28-6.28 1023.70-8.68Q1025.12-11.08 1025.12-14.40L1025.12-14.40Q1025.12-17.80 1023.64-20.24Q1022.16-22.68 1019.70-23.94Q1017.24-25.20 1014.40-25.20L1014.40-25.20L1009.36-25.20L1009.36-3.76Z"/></g>
</svg>
</g><g opacity="1" transform="rotate(0 650.9621 666.6582)">
<svg width="63.0758" height="79.2663" x="650.9621" y="666.6582" version="1.1" preserveAspectRatio="none" viewBox="33.531246185302734 16.5 132.96875 167.09999084472656">
  <g transform="matrix(1 0 0 1 0 0)" ><g><path d="M166.2 146.7L142.7 100l23.6-46.9c.3-.6.2-1.2-.3-1.7-.5-.4-1.1-.5-1.7-.2L128.5 72 101 17.3c-.2-.5-.7-.8-1.3-.8-.5 0-1 .3-1.3.8L71.1 72.2l-35.4-21c-.5-.3-1.2-.2-1.7.2s-.6 1.1-.3 1.7L57.1 100l-23.4 46.9c-.3.6-.2 1.2.3 1.7.5.4 1.1.5 1.7.2l35.4-20.9 27.4 54.9c.2.5.7.8 1.3.8.5 0 1-.3 1.3-.8l27.5-54.7 35.8 20.8c.2.1.5.2.7.2.8 0 1.4-.6 1.4-1.4-.1-.5-.2-.8-.3-1zm-65.1-55.5L127.4 76l11.4 22.6-37.7.2v-7.6zm-2.9 7.6l-37.4.2 11.4-22.7 26 15.3v7.2zm0 2.8v6.9l-26 15.4-11.1-22 37.1-.3zm2.9 0l37.7-.2-11.4 22.6-26.3-15.3v-7.1zm60.5-45.5l-20.5 40.7-11.3-22.2 31.8-18.5zm-35.5 17.4L101 87.9V23.6l25.1 49.9zm-28-49.1l.1 63.8-24.7-14.5 24.6-49.3zM38.4 56.2l31.4 18.6-11.1 22-20.3-40.6zm0 87.6l20.3-40.7 11.1 22.1-31.4 18.6zm59.8-32l.1 64.2-24.8-49.6 24.7-14.6zm2.9 64.2l-.1-64 25 14.5-24.9 49.5zm28.7-50.6l11.3-22.3 20.5 40.7-31.8-18.4z" data-color="1" class="aLgOaV3zRcolors-0"></path></g></g>
</svg>
</g><g opacity="1" transform="rotate(0 492.5 744.6381)">
<svg width="165.3083" height="1.6461" x="492.5" y="744.6381" version="1.1" preserveAspectRatio="none" viewBox="0 0 165.3083 1.6461">
  <rect x="0" y="0" width="165.3083" height="1.6461" class="asr1BtIxlfillColor shapeStroke-str" style="stroke-width:0;" rx="0px" ry="0px" />
</svg>
</g><g opacity="1" transform="rotate(0 707.1917 744.6381)">
<svg width="165.3083" height="1.6461" x="707.1917" y="744.6381" version="1.1" preserveAspectRatio="none" viewBox="0 0 165.3083 1.6461">
  <rect x="0" y="0" width="165.3083" height="1.6461" class="aR9TavoXYfillColor shapeStroke-str" style="stroke-width:0;" rx="0px" ry="0px" />
</svg>
</g><g opacity="1" transform="rotate(0 478.2763 761.0376)">
<svg width="408.4475" height="25.7533" x="478.2763" y="761.0376" version="1.1" preserveAspectRatio="none" viewBox="2.4 -28.56 461.84000000000003 29.12">
  <g transform="matrix(1 0 0 1 0 0)" class="aD6z1nYkhcolor"><path id="id-D6z1nYkh20" d="M21.36-0.40L21.88-0.40Q22.92-0.40 23.66-1.12Q24.40-1.84 24.44-2.88L24.44-2.88L24.44-13.24L8.08-13.24L8.08-2.92Q8.08-1.88 8.84-1.14Q9.60-0.40 10.64-0.40L10.64-0.40L11.16-0.40L11.16 0L2.40 0L2.40-0.40L2.92-0.40Q3.96-0.40 4.70-1.14Q5.44-1.88 5.48-2.92L5.48-2.92L5.48-25.12Q5.44-26.16 4.70-26.88Q3.96-27.60 2.92-27.60L2.92-27.60L2.40-27.60L2.40-28L11.16-28L11.16-27.60L10.64-27.60Q9.60-27.60 8.86-26.88Q8.12-26.16 8.08-25.12L8.08-25.12L8.08-14.44L24.44-14.44L24.44-25.12Q24.40-26.56 23.16-27.28L23.16-27.28Q22.56-27.60 21.88-27.60L21.88-27.60L21.36-27.60L21.36-28L30.12-28L30.12-27.60L29.60-27.60Q28.56-27.60 27.82-26.86Q27.08-26.12 27.04-25.08L27.04-25.08L27.04-2.92Q27.08-1.88 27.82-1.14Q28.56-0.40 29.60-0.40L29.60-0.40L30.12-0.40L30.12 0L21.36 0L21.36-0.40Z M42.44-22.98Q45.52-24.56 49.22-24.56Q52.92-24.56 56-22.98Q59.08-21.40 60.90-18.52Q62.72-15.64 62.72-12Q62.72-8.36 60.90-5.48Q59.08-2.60 56-1.02Q52.92 0.56 49.68 0.56Q46.44 0.56 43.96-0.36Q41.48-1.28 39.66-2.92Q37.84-4.56 36.78-6.92Q35.72-9.28 35.72-12.46Q35.72-15.64 37.54-18.52Q39.36-21.40 42.44-22.98ZM41.70-3.82Q44.72-0.64 49.20-0.64Q53.68-0.64 56.72-3.82Q59.76-7 59.76-12Q59.76-17 56.72-20.18Q53.68-23.36 49.20-23.36Q44.72-23.36 41.70-20.18Q38.68-17 38.68-12Q38.68-7 41.70-3.82Z M69-1.32L69-1.32Q68.88-1.80 68.88-3.28Q68.88-4.76 69.40-6.28L69.40-6.28L69.88-6.28Q69.84-5.92 69.84-5.56L69.84-5.56Q69.84-3.40 71.26-2.02Q72.68-0.64 75.20-0.64L75.20-0.64Q77.84-0.64 79.32-1.86Q80.80-3.08 80.80-5.02Q80.80-6.96 79.36-8.24L79.36-8.24L71.36-14.40Q69.44-16.04 69.44-18.80L69.44-18.80Q69.44-20.36 70.30-21.68Q71.16-23 72.70-23.78Q74.24-24.56 76.32-24.56Q78.40-24.56 80-24.20L80-24.20L81.32-24.20L81.40-19.84L80.96-19.84Q80.96-21.52 79.80-22.44Q78.64-23.36 76.48-23.36Q74.32-23.36 72.92-22.26Q71.52-21.16 71.52-19.42Q71.52-17.68 73.08-16.40L73.08-16.40L81.16-10.16Q83-8.64 83-5.92Q83-3.20 80.94-1.32Q78.88 0.56 75.92 0.56L75.92 0.56Q73.96 0.56 72 0.08Q70.04-0.40 69-1.32Z M96.32-10.96L96.32-11.36Q97.24-11.12 98.00-11.12Q98.76-11.12 99.24-11.16Q99.72-11.20 100.60-11.42Q101.48-11.64 102.20-12.12L102.20-12.12Q103.88-13.16 104.68-15.40L104.68-15.40Q104.96-16.20 104.96-17.56L104.96-17.56Q104.96-20 103.28-21.40Q101.60-22.80 98.64-22.80L98.64-22.80L94.76-22.80L94.76-2.56Q94.80-1.28 95.92-0.68L95.92-0.68Q96.44-0.40 97.08-0.40L97.08-0.40L97.64-0.40L97.64 0L89.36 0L89.36-0.40L89.92-0.40Q90.88-0.40 91.54-1.02Q92.20-1.64 92.24-2.52L92.24-2.52L92.24-21.48Q92.20-22.40 91.54-23Q90.88-23.60 89.92-23.60L89.92-23.60L89.36-23.60L89.36-24L98.72-24Q102.92-24 105.38-22.16Q107.84-20.32 107.84-17.20L107.84-17.20Q107.84-14.96 106.80-13.28L106.80-13.28Q104.76-10 100.48-10L100.48-10Q98.36-10 96.32-10.96L96.32-10.96Z M113.48-0.40L114.04-0.40Q115.12-0.40 115.92-1.04Q116.72-1.68 116.72-2.56L116.72-2.56L116.72-21.44Q116.72-22.32 115.92-22.96Q115.12-23.60 114.00-23.60L114.00-23.60L113.48-23.60L113.48-24L122.52-24L122.52-23.60L122.00-23.60Q120.92-23.60 120.14-23Q119.36-22.40 119.28-21.52L119.28-21.52L119.28-2.52Q119.32-1.64 120.12-1.02Q120.92-0.40 122.00-0.40L122.00-0.40L122.52-0.40L122.56 0L113.48 0L113.48-0.40Z M146.84-22.84L139.60-22.84L139.60-2.52Q139.64-1.28 140.80-0.68L140.80-0.68Q141.32-0.40 141.96-0.40L141.96-0.40L142.40-0.40L142.40 0L134.16 0L134.16-0.40L134.64-0.40Q135.60-0.40 136.28-1.04Q136.96-1.68 137-2.56L137-2.56L137-22.84L129.76-22.84Q128.84-22.84 128.30-22.24Q127.76-21.64 127.76-20.80L127.76-20.80L127.76-20.16L127.32-20.16L127.32-24.68Q128.12-24.36 129.58-24.20Q131.04-24.04 131.76-24.04L131.76-24.04L144.80-24.04Q147.68-24.04 149.28-24.68L149.28-24.68L149.28-20.16L148.84-20.16L148.84-20.80Q148.84-21.64 148.28-22.24Q147.72-22.84 146.84-22.84L146.84-22.84Z M175.44-0.40L175.44-0.40L175.76-0.40L175.76 0L167.56 0L167.56-0.40L167.88-0.40Q168.64-0.40 169.04-0.92Q169.44-1.44 169.44-1.90Q169.44-2.36 169.28-2.80L169.28-2.80L167.08-8.12L156.96-8.12L154.76-2.92Q154.56-2.40 154.56-1.94Q154.56-1.48 154.96-0.94Q155.36-0.40 156.16-0.40L156.16-0.40L156.48-0.40L156.48 0L148.84 0L148.84-0.40L149.16-0.40Q150-0.40 150.86-0.98Q151.72-1.56 152.28-2.72L152.28-2.72Q161.04-21.44 161.40-22.32L161.40-22.32Q162.08-24 162.12-24.56L162.12-24.56L162.48-24.56L172.36-2.72Q173.52-0.40 175.44-0.40ZM162.12-20.28L157.48-9.32L166.60-9.32L162.12-20.28Z M179.76-0.40L180.32-0.40Q181.28-0.40 181.94-1.02Q182.60-1.64 182.64-2.52L182.64-2.52L182.64-21.44Q182.60-22.32 181.90-22.96Q181.20-23.60 180.24-23.60L180.24-23.60L179.76-23.60L179.76-24L188.04-24L188.04-23.60L187.56-23.60Q186.60-23.60 185.90-22.96Q185.20-22.32 185.20-21.44L185.20-21.44L185.20-1.24L191.44-1.24Q193.28-1.24 194.56-1.88Q195.84-2.52 196.50-3.40Q197.16-4.28 197.80-5.72L197.80-5.72L198.20-5.72L196 0L179.76 0L179.76-0.40Z M202.24-0.40L202.80-0.40Q203.88-0.40 204.68-1.04Q205.48-1.68 205.48-2.56L205.48-2.56L205.48-21.44Q205.48-22.32 204.68-22.96Q203.88-23.60 202.76-23.60L202.76-23.60L202.24-23.60L202.24-24L211.28-24L211.28-23.60L210.76-23.60Q209.68-23.60 208.90-23Q208.12-22.40 208.04-21.52L208.04-21.52L208.04-2.52Q208.08-1.64 208.88-1.02Q209.68-0.40 210.76-0.40L210.76-0.40L211.28-0.40L211.32 0L202.24 0L202.24-0.40Z M235.60-22.84L228.36-22.84L228.36-2.52Q228.40-1.28 229.56-0.68L229.56-0.68Q230.08-0.40 230.72-0.40L230.72-0.40L231.16-0.40L231.16 0L222.92 0L222.92-0.40L223.40-0.40Q224.36-0.40 225.04-1.04Q225.72-1.68 225.76-2.56L225.76-2.56L225.76-22.84L218.52-22.84Q217.60-22.84 217.06-22.24Q216.52-21.64 216.52-20.80L216.52-20.80L216.52-20.16L216.08-20.16L216.08-24.68Q216.88-24.36 218.34-24.20Q219.80-24.04 220.52-24.04L220.52-24.04L233.56-24.04Q236.44-24.04 238.04-24.68L238.04-24.68L238.04-20.16L237.60-20.16L237.60-20.80Q237.60-21.64 237.04-22.24Q236.48-22.84 235.60-22.84L235.60-22.84Z M266.80-24L266.80-23.60L266.32-23.60Q265.24-23.60 264.26-23.02Q263.28-22.44 262.64-21.56L262.64-21.56L254.96-9.92L254.96-2.56Q254.96-1.68 255.64-1.04Q256.32-0.40 257.28-0.40L257.28-0.40L257.76-0.40L257.76 0L249.56 0L249.56-0.40L250.04-0.40Q251-0.40 251.68-1.04Q252.36-1.68 252.36-2.56L252.36-2.56L252.36-9.96L244.96-21.60Q243.60-23.60 241.28-23.60L241.28-23.60L240.80-23.60L240.80-24L250.08-24L250.08-23.60L249.60-23.60Q248.84-23.60 248.50-23.12Q248.16-22.64 248.16-22.30Q248.16-21.96 248.24-21.68L248.24-21.68L254.08-11.32L260.28-21.64Q260.40-21.96 260.40-22.30Q260.40-22.64 260.06-23.12Q259.72-23.60 258.92-23.60L258.92-23.60L258.44-23.60L258.44-24L266.80-24Z M283.04-1.64L283.04-1.64Q282.92-2.20 282.92-3.80Q282.92-5.40 283.52-7.20L283.52-7.20L283.88-7.20Q283.84-6.76 283.84-6.32L283.84-6.32Q283.84-3.88 285.32-2.26Q286.80-0.64 289.24-0.64L289.24-0.64Q291.76-0.64 293.38-2.16Q295-3.68 295-5.98Q295-8.28 293.44-9.72L293.44-9.72L285.76-16.84Q283.60-18.84 283.60-21.68Q283.60-24.52 285.50-26.54Q287.40-28.56 290.64-28.56L290.64-28.56Q292.16-28.56 294.08-28.16L294.08-28.16L295.64-28.16L295.64-23.24L295.28-23.24Q295.28-25.12 293.98-26.24Q292.68-27.36 290.64-27.36Q288.60-27.36 287.22-26Q285.84-24.64 285.84-22.60Q285.84-20.56 287.44-19.08L287.44-19.08L295.32-11.80Q297.32-9.96 297.32-6.76Q297.32-3.56 295.28-1.50Q293.24 0.56 289.84 0.56L289.84 0.56Q288.08 0.56 286.10 0.02Q284.12-0.52 283.04-1.64Z M303.80-0.40L304.36-0.40Q305.32-0.40 305.98-1.02Q306.64-1.64 306.68-2.52L306.68-2.52L306.68-21.52Q306.68-22.40 306-23Q305.32-23.60 304.36-23.60L304.36-23.60L303.80-23.60L303.80-24L315.48-24Q317.12-24 318.36-24.24Q319.60-24.48 319.96-24.64L319.96-24.64L319.96-20.08L319.52-20.12L319.52-20.72Q319.52-21.56 318.96-22.16Q318.40-22.76 317.52-22.76L317.52-22.76L309.20-22.76L309.20-12.60L316.04-12.60Q316.84-12.60 317.26-13.08Q317.68-13.56 317.68-14.28L317.68-14.28L317.68-14.80L318.12-14.80L318.12-9.20L317.68-9.20L317.68-9.72Q317.68-10.84 316.84-11.24L316.84-11.24Q316.52-11.36 316.16-11.40L316.16-11.40L309.20-11.40L309.20-1.24L315.48-1.24Q317.32-1.24 318.58-1.88Q319.84-2.52 320.50-3.40Q321.16-4.28 321.84-5.72L321.84-5.72L322.24-5.72L320.04 0L303.80 0L303.80-0.40Z M334.72-22.76L334.72-22.76L332.60-22.76L332.60-2.56Q332.64-1.32 333.72-0.68L333.72-0.68Q334.24-0.40 334.88-0.40L334.88-0.40L335.40-0.40L335.44 0L327.24 0L327.24-0.40L327.80-0.40Q328.72-0.40 329.38-1.02Q330.04-1.64 330.04-2.52L330.04-2.52L330.04-21.52Q330.04-22.40 329.38-23Q328.72-23.60 327.80-23.60L327.80-23.60L327.24-23.60L327.24-24L337.28-24Q341.04-24 343.22-22.28Q345.40-20.56 345.40-17.76Q345.40-14.96 343.64-13.08Q341.88-11.20 339.16-10.92L339.16-10.92Q340.44-10.36 342.24-7.80L342.24-7.80Q342.20-7.80 343.62-6.04Q345.04-4.28 345.90-3.30Q346.76-2.32 347.32-1.80L347.32-1.80Q348.80-0.40 350.72-0.40L350.72-0.40L350.72 0L349.48 0Q346.32 0 344.52-1.24L344.52-1.24Q343.16-2.16 342.04-3.52L342.04-3.52Q341.80-3.84 340.02-6.34Q338.24-8.84 338.12-9L338.12-9Q335.96-11.68 334.08-11.68L334.08-11.68L334.08-12.08Q338.76-12.08 339.72-12.56L339.72-12.56Q341.04-13.24 341.52-14L341.52-14Q342.52-15.60 342.52-17.52L342.52-17.52Q342.52-19.96 341.08-21.28Q339.64-22.60 337.20-22.72L337.20-22.72Q336.12-22.76 334.72-22.76Z M377.24-24L377.24-23.60L376.92-23.60Q376.04-23.60 375.20-23.02Q374.36-22.44 373.76-21.28L373.76-21.28Q365.04-2.56 364.68-1.68L364.68-1.68Q364 0 363.96 0.56L363.96 0.56L363.60 0.56L353.72-21.24Q352.56-23.60 350.64-23.60L350.64-23.60L350.32-23.60L350.32-24L358.52-24L358.52-23.60L358.20-23.60Q357.44-23.60 357.06-23.06Q356.68-22.52 356.68-22.08Q356.68-21.64 356.80-21.16L356.80-21.16L363.96-3.72L371.32-21.08Q371.52-21.60 371.52-22.06Q371.52-22.52 371.12-23.06Q370.72-23.60 369.92-23.60L369.92-23.60L369.64-23.60L369.64-24L377.24-24Z M381.24-0.40L381.80-0.40Q382.88-0.40 383.68-1.04Q384.48-1.68 384.48-2.56L384.48-2.56L384.48-21.44Q384.48-22.32 383.68-22.96Q382.88-23.60 381.76-23.60L381.76-23.60L381.24-23.60L381.24-24L390.28-24L390.28-23.60L389.76-23.60Q388.68-23.60 387.90-23Q387.12-22.40 387.04-21.52L387.04-21.52L387.04-2.52Q387.08-1.64 387.88-1.02Q388.68-0.40 389.76-0.40L389.76-0.40L390.28-0.40L390.32 0L381.24 0L381.24-0.40Z M409.08 0.56Q402.96 0.52 399.42-2.84Q395.88-6.20 395.88-12.02Q395.88-17.84 399.42-21.20Q402.96-24.56 409.08-24.56L409.08-24.56Q411.56-24.56 414.08-23.92Q416.60-23.28 418.44-22.16L418.44-22.16L419.32-16.48L418.96-16.48Q417.24-23.36 409.04-23.36L409.04-23.36Q404.28-23.36 401.52-20.32Q398.76-17.28 398.76-12L398.76-12Q398.76-8.56 400.00-6.02Q401.24-3.48 403.60-2.08L403.60-2.08Q405.96-0.68 409.08-0.68Q412.20-0.68 414.54-1.62Q416.88-2.56 418.42-4.72Q419.96-6.88 420.16-10.08L420.16-10.08L420.52-10.08L420.08-4.60Q418.52-2.20 415.56-0.82Q412.60 0.56 409.08 0.56L409.08 0.56Z M426.28-0.40L426.84-0.40Q427.80-0.40 428.46-1.02Q429.12-1.64 429.16-2.52L429.16-2.52L429.16-21.52Q429.16-22.40 428.48-23Q427.80-23.60 426.84-23.60L426.84-23.60L426.28-23.60L426.28-24L437.96-24Q439.60-24 440.84-24.24Q442.08-24.48 442.44-24.64L442.44-24.64L442.44-20.08L442.00-20.12L442.00-20.72Q442.00-21.56 441.44-22.16Q440.88-22.76 440.00-22.76L440.00-22.76L431.68-22.76L431.68-12.60L438.52-12.60Q439.32-12.60 439.74-13.08Q440.16-13.56 440.16-14.28L440.16-14.28L440.16-14.80L440.60-14.80L440.60-9.20L440.16-9.20L440.16-9.72Q440.16-10.84 439.32-11.24L439.32-11.24Q439.00-11.36 438.64-11.40L438.64-11.40L431.68-11.40L431.68-1.24L437.96-1.24Q439.80-1.24 441.06-1.88Q442.32-2.52 442.98-3.40Q443.64-4.28 444.32-5.72L444.32-5.72L444.72-5.72L442.52 0L426.28 0L426.28-0.40Z M450.24-1.32L450.24-1.32Q450.12-1.80 450.12-3.28Q450.12-4.76 450.64-6.28L450.64-6.28L451.12-6.28Q451.08-5.92 451.08-5.56L451.08-5.56Q451.08-3.40 452.50-2.02Q453.92-0.64 456.44-0.64L456.44-0.64Q459.08-0.64 460.56-1.86Q462.04-3.08 462.04-5.02Q462.04-6.96 460.60-8.24L460.60-8.24L452.60-14.40Q450.68-16.04 450.68-18.80L450.68-18.80Q450.68-20.36 451.54-21.68Q452.40-23 453.94-23.78Q455.48-24.56 457.56-24.56Q459.64-24.56 461.24-24.20L461.24-24.20L462.56-24.20L462.64-19.84L462.20-19.84Q462.20-21.52 461.04-22.44Q459.88-23.36 457.72-23.36Q455.56-23.36 454.16-22.26Q452.76-21.16 452.76-19.42Q452.76-17.68 454.32-16.40L454.32-16.40L462.40-10.16Q464.24-8.64 464.24-5.92Q464.24-3.20 462.18-1.32Q460.12 0.56 457.16 0.56L457.16 0.56Q455.20 0.56 453.24 0.08Q451.28-0.40 450.24-1.32Z"/></g>
</svg>
</g></svg>